{"title":"Victor.Frankenstein.2015.WEBRip.480p.x264.AAC-VYTO [P2PDL]","uid":13617307,"size":411291974,"categoryP":"video","categoryS":"movies","magnet":"?xt=urn:btih:c42b9317a46dbba5474701b6a1eb60652eae04af&amp;dn=Victor.Frankenstein.2015.WEBRip.480p.x264.AAC-VYTO+%5BP2PDL%5D&amp;tr=udp%3A%2F%2Ftracker.leechers-paradise.org%3A6969&amp;tr=udp%3A%2F%2Fzer0day.ch%3A1337&amp;tr=udp%3A%2F%2Fopen.demonii.com%3A1337&amp;tr=udp%3A%2F%2Ftracker.coppersurfer.tk%3A6969&amp;tr=udp%3A%2F%2Fexodus.desync.com%3A6969","seeders":0,"leechers":2,"uploader":"VYTOP2PDL","files":7,"time":1455951572,"description":"____    ____ ____    ____ .___________.  ______   \r\n     /   /      /   / |           | /  __    \r\n    /   /      /   /  `---|  |----`|  |  |  | \r\n        /     _    _/       |  |     |  |  |  | \r\n       /        |  |         |  |     |  `--'  | \r\n    __/         |__|         |__|      ______/  \r\n                                                  \r\nPresenting Small Encodes with quality for years!\r\n                                                                                                   \r\n                                                                                                   \r\n\r\n\r\nVictor.Frankenstein.2015.WEBRip.480p.x264.AAC-VYTO\r\n\r\n\r\nGenre: Drama, Horror, Sci-Fi  \nhttp://www.imdb.com/title/tt1976009/\r\n\r\n\r\nFormat                                   : MPEG-4\r\nFile size                                : 387 MiB\r\nDuration                                 : 1h 50mn\r\nOverall bit rate                         : 490 Kbps\r\n\r\nVideo\r\nFormat                                   : AVC\r\nBit rate                                 : 455 Kbps\r\nWidth                                    : 720 pixels\r\nHeight                                   : 304 pixels\r\nDisplay aspect ratio                     : 2.35:1\r\nFrame rate mode                          : Constant\r\nFrame rate                               : 23.976 fps\r\nChroma subsampling                       : 4:2:0\r\nBit depth                                : 8 bits\r\nStream size                              : 359 MiB (93%)\r\nWriting library                          : x264 \r\n\r\nAudio\r\nFormat                                   : AAC\r\nBit rate mode                            : Variable\r\nBit rate                                 : 31.9 Kbps\r\nChannel(s)                               : 2 channels \r\nChannel positions                        : Front: L R \r\nSampling rate                            : 48.0 KHz \r\nStream size                              : 25.1 MiB (6%)\r\nLanguage                                 : English\r\n\r\nSubtitle                                 : Yes (English)\r\n\r\nScreen Shot: (Click to view)\r\n \nhttp://ititli.com/XTy \nhttp://ititli.com/XT3 \nhttp://ititli.com/XTE \nhttp://ititli.com/XTQ \nhttp://ititli.com/XTS \nhttp://ititli.com/XTZ \nhttp://ititli.com/XTc \nhttp://ititli.com/XTi \nhttp://ititli.com/XTp\r\n\r\n----------------------------------------------------------------------------------------------------\r\n\r\n\r\nEncoder Notes: Looking For Early Access To Anything You Can Provide WEBDL, DVDScr, DVDR, BluRay,\r\nDirect Audio, Music Releases and Seedboxes. If You Got anything to offer please contact us.\r\n\r\nSupport us by donating BC - 1FgwdzPsd1y25Gea8wP1qni35uGCtmkRCD\r\n\r\nSend some love!\r\nFind us and join us!","torrent":{"xt":"urn:btih:c42b9317a46dbba5474701b6a1eb60652eae04af","amp;dn":"Victor.Frankenstein.2015.WEBRip.480p.x264.AAC-VYTO+%5BP2PDL%5D","amp;tr":["udp%3A%2F%2Ftracker.leechers-paradise.org%3A6969","udp%3A%2F%2Fzer0day.ch%3A1337","udp%3A%2F%2Fopen.demonii.com%3A1337","udp%3A%2F%2Ftracker.coppersurfer.tk%3A6969","udp%3A%2F%2Fexodus.desync.com%3A6969"],"infoHash":"c42b9317a46dbba5474701b6a1eb60652eae04af","infoHashBuffer":{"type":"Buffer","data":[196,43,147,23,164,109,187,165,71,71,1,182,161,235,96,101,46,174,4,175]},"announce":[],"urlList":[]}}